<?xml version="1.0" standalone="no"?>
<!DOCTYPE svg PUBLIC "-//W3C//DTD SVG 20010904//EN"
 "http://www.w3.org/TR/2001/REC-SVG-20010904/DTD/svg10.dtd">
<svg version="1.0" xmlns="http://www.w3.org/2000/svg"
 width="742.000000pt" height="742.000000pt" viewBox="0 0 742.000000 742.000000"
 preserveAspectRatio="xMidYMid meet">
<metadata>
Created by potrace 1.14, written by Peter Selinger 2001-2017
</metadata>
<g transform="translate(0.000000,742.000000) scale(0.100000,-0.100000)"
fill="#000000" stroke="none">
<path d="M0 3710 l0 -3710 3710 0 3710 0 0 3710 0 3710 -3710 0 -3710 0 0
-3710z m5302 3106 c411 -81 692 -418 691 -831 -1 -230 -84 -432 -245 -594
-322 -324 -840 -334 -1170 -23 -178 169 -268 375 -268 618 0 237 87 443 256
605 107 102 196 156 324 197 133 43 281 53 412 28z"/>
</g>
</svg>
